<?xml version="1.0" encoding="utf-8"?>
<!-- Generator: Adobe Illustrator 26.0.1, SVG Export Plug-In . SVG Version: 6.00 Build 0)  -->
<svg version="1.1" id="Layer_1" xmlns="http://www.w3.org/2000/svg" xmlns:xlink="http://www.w3.org/1999/xlink" x="0px" y="0px"
	 viewBox="0 0 642.2 239.4" style="enable-background:new 0 0 642.2 239.4;" xml:space="preserve">
<style type="text/css">
	.st0{fill:#F9F9F9;}
	.st1{fill:#F15A29;}
</style>
<g>
	<path class="st0" d="M269,32v13.2h-21.8v68.6h-16.4V45.3H209V32H269z"/>
	<path class="st0" d="M348.8,32v81.8h-16.4V79h-35.1v34.8h-16.4V32h16.4v33.6h35.1V32H348.8z"/>
	<path class="st0" d="M407.2,113.9l-18-31.9h-7.7v31.9h-16.4V32h30.7c6.3,0,11.7,1.1,16.2,3.3c4.1,2,7.6,5.1,10,9
		c4.9,8.6,4.4,19.3-1.3,27.4c-3.1,4.3-7.8,7.3-14,9l19.6,33.2H407.2z M381.5,69.7h13.7c4.4,0,7.8-1.1,10-3.2c2.2-2.2,3.3-5.2,3.3-9
		c0-3.7-1.1-6.7-3.3-8.7c-2.2-2.1-5.5-3.1-10-3.1h-13.7V69.7z"/>
	<path class="st1" d="M456.6,45.3v20.5h27.6v13h-27.6v21.7h31.1v13.4h-47.5v-82h47.5v13.4H456.6z"/>
	<path class="st0" d="M552.8,98.3h-32.6l-5.4,15.6h-17.2l29.4-82h19.1l29.4,82h-17.3L552.8,98.3z M548.3,85.2L536.5,51l-11.9,34.2
		H548.3z"/>
	<path class="st0" d="M642.2,32v13.2h-21.8v68.6H604V45.3h-21.8V32H642.2z"/>
	<path class="st0" d="M233.1,142.9c3.5-6.2,8.7-11.4,14.9-14.9c6.5-3.6,13.8-5.4,21.2-5.3c8.5-0.2,16.9,2.3,24,7
		c6.9,4.7,12,11.6,14.4,19.5h-18.8c-1.7-3.7-4.4-6.7-7.9-8.8c-3.6-2-7.7-3-11.8-2.9c-4.5-0.1-8.9,1.1-12.7,3.3
		c-3.7,2.3-6.7,5.5-8.7,9.4c-4.1,9.1-4.1,19.5,0,28.5c1.9,3.9,4.9,7.2,8.7,9.5c3.9,2.3,8.3,3.4,12.7,3.3c4.1,0.1,8.2-1,11.8-3
		c3.5-2.1,6.2-5.2,7.9-8.8h18.8c-2.4,8-7.5,14.8-14.4,19.5c-6.8,4.7-14.9,7-24.1,7c-7.4,0.1-14.7-1.7-21.1-5.3
		c-6.2-3.5-11.4-8.6-14.9-14.8C225.9,172.7,225.9,156.4,233.1,142.9L233.1,142.9z"/>
	<path class="st0" d="M337.9,123.8v50.7c0,5.6,1.4,9.8,4.3,12.7s7,4.4,12.2,4.4c5.3,0,9.4-1.5,12.3-4.4s4.3-7.2,4.3-12.7v-50.7h16.6
		v50.5c0,7-1.5,12.8-4.5,17.7c-2.9,4.7-7.1,8.5-12.1,10.8c-5.3,2.5-11,3.7-16.8,3.6c-5.7,0.1-11.4-1.2-16.6-3.6
		c-4.9-2.4-9-6.1-11.8-10.8c-2.9-4.8-4.3-10.7-4.3-17.7v-50.6L337.9,123.8L337.9,123.8z"/>
	<path class="st0" d="M445.7,205.6l-18.1-31.9h-7.7v31.9h-16.4v-81.8h30.7c6.3,0,11.7,1.1,16.2,3.3c4.1,2,7.6,5.1,10,9
		c2.2,3.9,3.4,8.3,3.3,12.7c0,5.2-1.6,10.4-4.7,14.6c-3.1,4.3-7.8,7.3-14,9l19.6,33.2L445.7,205.6L445.7,205.6z M419.9,161.4h13.7
		c4.5,0,7.8-1.1,10-3.2c2.2-2.1,3.3-5.1,3.3-9c0-3.7-1.1-6.7-3.3-8.7c-2.2-2.1-5.5-3.1-10-3.1h-13.7V161.4z"/>
	<path class="st0" d="M495,137v20.5h27.6v13H495v21.7h31.1v13.4h-47.5v-82h47.5V137H495z"/>
	<path class="st0" d="M37.5,203.7L120,55.9c-6.8-12.5-13.6-24.8-20.6-37.7L110.1,0c19.3,34.6,38,68.2,56.8,101.9l-10.5,19.7
		c-8.7-15.7-16.9-30.5-25-45.2l-1.7-0.4c-23.1,42.5-46.2,85.1-69.3,127.7L37.5,203.7L37.5,203.7z"/>
	<path class="st0" d="M104.9,188.4h35.5v15.2H74.8c18.7-33.1,37-65.4,56-98.9l39.9,71.7h-21.4c-5.9-10.5-12-21.5-18.8-33.7
		C121.8,158.2,113.7,172.8,104.9,188.4z"/>
	<path class="st0" d="M92,38.8L102.6,58c-26.5,48.7-53,97.3-79.6,146H0C30.7,148.8,61.1,94.3,92,38.8z"/>
	<path class="st1" d="M155.7,203.7v-15h37l-28.5-52.9l10.9-19.3l48.5,87.2H155.7z"/>
	<path class="st0" d="M8.7,235.2l-3.2-5.5H3.8v5.5H1.5v-13.8h4.8c0.9,0,1.8,0.2,2.7,0.5c0.7,0.3,1.3,0.8,1.6,1.5
		c0.4,0.6,0.5,1.4,0.5,2.1c0,0.9-0.3,1.7-0.8,2.5c-0.6,0.8-1.4,1.3-2.4,1.5l3.4,5.7H8.7z M3.8,227.9h2.5c0.7,0.1,1.4-0.2,1.9-0.6
		c0.4-0.5,0.7-1.1,0.6-1.7c0-0.6-0.2-1.2-0.6-1.7c-0.5-0.4-1.2-0.7-1.9-0.6H3.8V227.9z"/>
	<path class="st0" d="M23.6,223.3v4h4.8v1.8h-4.8v4.2H29v1.8h-7.6v-13.8H29v1.8L23.6,223.3z"/>
	<path class="st0" d="M47.4,227.1v1.9h-8.1v-1.9H47.4z"/>
	<path class="st0" d="M66.2,232.4h-5.8l-1,2.8H57l4.9-13.8h2.6l4.9,13.8H67L66.2,232.4z M65.6,230.6l-2.2-6.4l-2.2,6.4H65.6z"/>
	<path class="st0" d="M86.2,235.2l-3.2-5.5h-1.7v5.5H79v-13.8h4.8c0.9,0,1.8,0.2,2.7,0.5c0.7,0.3,1.3,0.8,1.6,1.5
		c0.4,0.6,0.5,1.4,0.5,2.1c0,0.9-0.3,1.7-0.8,2.5c-0.6,0.8-1.4,1.3-2.4,1.5l3.4,5.7H86.2z M81.3,227.9h2.5c0.7,0.1,1.4-0.2,1.9-0.6
		c0.4-0.5,0.7-1.1,0.6-1.7c0-0.6-0.2-1.2-0.6-1.7c-0.5-0.4-1.2-0.7-1.9-0.6h-2.5V227.9z"/>
	<path class="st0" d="M99.1,224.7c0.6-1.1,1.5-1.9,2.5-2.5c2.3-1.3,5.2-1.2,7.4,0.2c1.1,0.7,2,1.8,2.5,3h-2.7
		c-0.3-0.7-0.8-1.2-1.5-1.6c-0.7-0.4-1.4-0.5-2.2-0.5c-0.8,0-1.7,0.2-2.4,0.6c-0.7,0.4-1.3,1-1.7,1.8c-0.8,1.7-0.8,3.7,0,5.3
		c0.4,0.7,1,1.3,1.7,1.8c0.7,0.4,1.6,0.6,2.4,0.6s1.5-0.2,2.2-0.5c0.7-0.4,1.2-0.9,1.5-1.6h2.7c-0.5,1.2-1.4,2.3-2.5,3
		c-2.3,1.4-5.1,1.4-7.5,0.2c-1.1-0.6-1.9-1.5-2.5-2.5c-1.3-2.3-1.3-5,0-7.2L99.1,224.7z"/>
	<path class="st0" d="M132.5,221.5v13.8h-2.3v-6h-6.5v6h-2.3v-13.8h2.3v5.9h6.5v-5.9H132.5z"/>
	<path class="st0" d="M145.1,221.5v13.8h-2.3v-13.8H145.1z"/>
	<path class="st0" d="M164.2,221.5v1.8h-3.6v11.9h-2.3v-11.9h-3.7v-1.8H164.2z"/>
	<path class="st0" d="M176.1,223.3v4h4.8v1.8h-4.8v4.2h5.4v1.8h-7.6v-13.8h7.6v1.8L176.1,223.3z"/>
	<path class="st0" d="M191.7,224.7c0.6-1,1.5-1.9,2.5-2.5c2.3-1.3,5.2-1.2,7.5,0.2c1.1,0.7,2,1.8,2.5,3h-2.7
		c-0.3-0.7-0.8-1.2-1.5-1.6c-0.7-0.4-1.4-0.5-2.2-0.5c-0.9,0-1.7,0.2-2.4,0.6c-0.7,0.4-1.3,1-1.7,1.8c-0.8,1.7-0.8,3.7,0,5.3
		c0.4,0.7,1,1.3,1.7,1.8c0.7,0.4,1.6,0.6,2.4,0.6s1.5-0.2,2.2-0.5c0.7-0.4,1.2-0.9,1.5-1.6h2.7c-0.5,1.2-1.3,2.3-2.5,3
		c-2.3,1.4-5.1,1.4-7.5,0.2c-1.1-0.6-1.9-1.5-2.5-2.5C190.4,229.7,190.4,227,191.7,224.7L191.7,224.7z"/>
	<path class="st0" d="M223.1,221.5v1.8h-3.7v11.9h-2.2v-11.9h-3.7v-1.8H223.1z"/>
	<path class="st0" d="M255.3,221.5l-4.5,8.8v5h-2.3v-5l-4.6-8.8h2.5l3.2,6.8l3.2-6.8H255.3z"/>
	<path class="st0" d="M267.2,234.5c-1.1-0.6-1.9-1.5-2.5-2.5c-0.6-1.1-1-2.4-0.9-3.6c0-1.3,0.3-2.5,0.9-3.6s1.5-1.9,2.5-2.5
		c2.2-1.2,4.9-1.2,7.1,0c1.1,0.6,1.9,1.5,2.5,2.5c0.6,1.1,0.9,2.4,0.9,3.6c0,1.3-0.3,2.5-0.9,3.6s-1.5,1.9-2.5,2.5
		C272.1,235.7,269.4,235.7,267.2,234.5z M273.2,232.8c0.7-0.4,1.3-1,1.7-1.8c0.4-0.8,0.6-1.8,0.6-2.7s-0.2-1.8-0.6-2.7
		c-0.4-0.7-1-1.3-1.7-1.8c-1.5-0.8-3.3-0.8-4.9,0c-0.7,0.4-1.3,1-1.7,1.8c-0.4,0.8-0.6,1.7-0.6,2.7c0,0.9,0.2,1.9,0.6,2.7
		c0.4,0.7,1,1.4,1.7,1.8C269.8,233.6,271.6,233.6,273.2,232.8L273.2,232.8z"/>
	<path class="st0" d="M289.5,221.5v8.8c-0.1,0.9,0.2,1.7,0.8,2.4c1.3,1.1,3.2,1.1,4.6,0c0.6-0.6,0.9-1.5,0.8-2.4v-8.8h2.2v8.7
		c0,1-0.2,2-0.7,2.9c-0.5,0.8-1.2,1.4-2,1.7c-0.9,0.4-1.8,0.6-2.7,0.6c-0.9,0-1.9-0.2-2.7-0.6c-0.8-0.4-1.5-1-1.9-1.7
		c-0.5-0.9-0.8-1.9-0.7-2.9v-8.7H289.5z"/>
	<path class="st0" d="M315.4,235.2l-3.2-5.5h-1.7v5.5h-2.2v-13.8h4.8c0.9,0,1.8,0.2,2.7,0.5c0.7,0.3,1.3,0.8,1.6,1.5
		c0.4,0.6,0.6,1.3,0.5,2.1c0,0.9-0.3,1.7-0.8,2.5c-0.6,0.8-1.5,1.3-2.4,1.5l3.4,5.7H315.4z M310.5,227.9h2.5
		c0.7,0.1,1.4-0.2,1.9-0.6c0.4-0.5,0.7-1.1,0.6-1.7c0-0.6-0.2-1.2-0.6-1.7c-0.5-0.4-1.2-0.7-1.9-0.6h-2.5V227.9z"/>
	<path class="st0" d="M349.5,221.5v1.8h-3.7v11.9h-2.3v-11.9h-3.7v-1.8H349.5z"/>
	<path class="st0" d="M370.1,221.5v13.8h-2.3v-6h-6.5v6H359v-13.8h2.3v5.9h6.5v-5.9H370.1z"/>
	<path class="st0" d="M387.5,235.2l-3.2-5.5h-1.7v5.5h-2.3v-13.8h4.8c0.9,0,1.8,0.2,2.7,0.5c0.7,0.3,1.3,0.8,1.6,1.5
		c0.4,0.6,0.5,1.4,0.5,2.1c0,0.9-0.3,1.7-0.8,2.5c-0.6,0.8-1.4,1.3-2.4,1.5l3.4,5.7H387.5z M382.6,227.9h2.5
		c0.7,0.1,1.4-0.2,1.9-0.6c0.4-0.5,0.7-1.1,0.6-1.7c0-0.6-0.2-1.2-0.6-1.7c-0.5-0.4-1.2-0.7-1.9-0.6h-2.5V227.9z"/>
	<path class="st0" d="M402.4,223.3v4h4.8v1.8h-4.8v4.2h5.3v1.8h-7.6v-13.8h7.6v1.8L402.4,223.3z"/>
	<path class="st0" d="M426.2,232.4h-5.8l-1,2.8H417l4.9-13.8h2.6l4.9,13.8H427L426.2,232.4z M425.5,230.6l-2.2-6.4l-2.3,6.4H425.5z"
		/>
	<path class="st0" d="M447.9,221.5v1.8h-3.7v11.9h-2.3v-11.9h-3.7v-1.8H447.9z"/>
	<path class="st0" d="M472.2,233.4h4.7v1.8H470v-13.8h2.3L472.2,233.4z"/>
	<path class="st0" d="M494.4,232.4h-5.8l-1,2.8h-2.4l4.9-13.8h2.6l4.9,13.8h-2.4L494.4,232.4z M493.7,230.6l-2.2-6.4l-2.3,6.4H493.7
		z"/>
	<path class="st0" d="M518.5,235.2h-2.3l-6.8-10.3v10.3h-2.3v-13.8h2.3l6.8,10.3v-10.3h2.3V235.2z"/>
	<path class="st0" d="M537.1,222.3c1.1,0.5,2,1.4,2.5,2.4c0.6,1.1,0.9,2.4,0.9,3.7s-0.3,2.5-0.9,3.7c-0.6,1-1.5,1.8-2.5,2.4
		c-1.2,0.6-2.5,0.8-3.8,0.8h-4.5v-13.7h4.5C534.6,221.4,535.9,221.7,537.1,222.3z M537,232.1c0.9-1,1.4-2.3,1.3-3.7
		c0.1-1.4-0.4-2.7-1.3-3.7c-1-0.9-2.3-1.4-3.7-1.3h-2.2v10.1h2.2C534.6,233.5,536,233,537,232.1L537,232.1z"/>
	<path class="st0" d="M552.2,234.9c-0.7-0.3-1.3-0.8-1.7-1.4c-0.4-0.6-0.7-1.3-0.6-2.1h2.4c0,0.6,0.3,1.1,0.7,1.5
		c0.5,0.4,1.1,0.6,1.8,0.6c0.7,0,1.3-0.2,1.8-0.6c0.4-0.4,0.7-0.9,0.7-1.5c0-0.4-0.1-0.8-0.4-1.1s-0.6-0.5-1-0.7
		c-0.5-0.2-1.1-0.4-1.7-0.5c-0.7-0.2-1.5-0.4-2.2-0.7c-0.6-0.2-1.1-0.6-1.4-1.1c-0.4-0.6-0.6-1.3-0.6-2s0.2-1.5,0.6-2.1
		s1-1.1,1.7-1.4c0.8-0.3,1.6-0.5,2.5-0.5c1.2-0.1,2.3,0.3,3.3,1c0.8,0.7,1.4,1.7,1.4,2.7H557c0-0.5-0.3-1-0.7-1.3
		c-0.5-0.4-1.1-0.6-1.7-0.5c-0.6,0-1.1,0.1-1.6,0.5c-0.4,0.4-0.6,0.9-0.6,1.4c0,0.4,0.1,0.7,0.4,1c0.3,0.3,0.6,0.5,1,0.6
		c0.5,0.2,1.1,0.4,1.6,0.5c0.8,0.2,1.5,0.5,2.2,0.8c0.6,0.3,1.1,0.6,1.5,1.2c0.4,0.6,0.6,1.3,0.6,2.1c0,0.7-0.2,1.4-0.6,2
		s-1,1.2-1.6,1.5c-0.8,0.4-1.7,0.6-2.5,0.6C553.8,235.4,553,235.2,552.2,234.9z"/>
	<path class="st0" d="M569.6,224.7c0.6-1,1.5-1.9,2.5-2.5c2.3-1.3,5.2-1.2,7.5,0.2c1.1,0.7,2,1.8,2.5,3h-2.7
		c-0.3-0.7-0.8-1.2-1.5-1.6c-0.7-0.4-1.4-0.5-2.2-0.5c-0.9,0-1.7,0.2-2.4,0.6c-0.7,0.4-1.3,1-1.7,1.8c-0.8,1.7-0.8,3.7,0,5.3
		c0.4,0.7,1,1.3,1.7,1.8c0.7,0.4,1.6,0.6,2.4,0.6s1.5-0.2,2.2-0.5c0.7-0.4,1.2-0.9,1.5-1.6h2.7c-0.5,1.2-1.3,2.3-2.5,3
		c-2.3,1.4-5.1,1.4-7.5,0.2c-1.1-0.6-1.9-1.5-2.5-2.5C568.3,229.7,568.3,227,569.6,224.7L569.6,224.7z"/>
	<path class="st0" d="M600.4,232.4h-5.8l-1,2.8h-2.3l4.9-13.8h2.6l4.9,13.8h-2.4L600.4,232.4z M599.7,230.6l-2.2-6.4l-2.2,6.4H599.7
		z"/>
	<path class="st0" d="M622.3,227.5c-0.4,0.7-0.9,1.2-1.6,1.5c-0.9,0.4-1.8,0.6-2.8,0.6h-2.5v5.6h-2.3v-13.8h4.8
		c0.9,0,1.8,0.2,2.7,0.5c0.7,0.3,1.3,0.8,1.7,1.5c0.4,0.6,0.5,1.4,0.5,2.1C622.8,226.2,622.6,226.9,622.3,227.5z M619.8,227.2
		c0.4-0.4,0.7-1,0.6-1.7c0-1.5-0.8-2.2-2.6-2.2h-2.5v4.5h2.5C618.6,227.8,619.3,227.6,619.8,227.2z"/>
	<path class="st0" d="M634.5,223.3v4h4.8v1.8h-4.8v4.2h5.3v1.8h-7.6v-13.8h7.6v1.8L634.5,223.3z"/>
</g>
</svg>
